# xmcd
#
# Track frame offsets:
#	150
#	27709
#	47076
#	75568
#	93979
#	116134
#	133179
#	158374
#	183672
#	213766
#	239719
#	265146
#
# Disc length: 3874 seconds
#
# Revision: 1
# Processed by: cddbd v1.5.1PL2 Copyright (c) Steve Scherf et al.
# Submitted via: EasyCDDAExtractor 9.0.0.1
#
DISCID=a50f200c
DTITLE=Dio - Tentfestival Ulm 02-06-06 Disc 1
DYEAR=2006
DGENRE=Hard Rock
TTITLE0=Children Of The Sea
TTITLE1=I Speed At Night
TTITLE2=The Eyes
TTITLE3=Stand Up And Shout
TTITLE4=Holy Diver
TTITLE5=Gypsy
TTITLE6=Drum Solo
TTITLE7=Sunset Superman
TTITLE8=Don't Talk To Strangers
TTITLE9=Rainbow In The Dark
TTITLE10=Guitar Solo
TTITLE11=I
EXTD=
EXTT0=
EXTT1=
EXTT2=
EXTT3=
EXTT4=
EXTT5=
EXTT6=
EXTT7=
EXTT8=
EXTT9=
EXTT10=
EXTT11=
PLAYORDER=
